<?xml version="1.0" encoding="utf-8"?>
<!-- Generator: Adobe Illustrator 24.2.1, SVG Export Plug-In . SVG Version: 6.00 Build 0)  -->
<svg version="1.1" id="Layer_1" xmlns="http://www.w3.org/2000/svg" xmlns:xlink="http://www.w3.org/1999/xlink" x="0px" y="0px"
	 viewBox="0 0 278.24 194.22" style="enable-background:new 0 0 278.24 194.22;" xml:space="preserve">
<style type="text/css">
	.st0{fill:#059DD9;}
	.st1{fill:#14A64A;}
	.st2{fill:#F3C84C;}
	.st3{fill:#D1D3D4;}
	.st4{fill:#F1F2F2;}
	.st5{fill:none;}
	.st6{fill:#6D6E71;}
	.st7{font-family:'Futura-Bold';}
	.st8{font-size:20px;}
	.st9{fill:#939598;}
	.st10{font-size:10px;}
	.st11{fill:#594A42;}
	.st12{fill:#C2B59B;}
</style>
<g>
	<g>
		<g>
			<path class="st3" d="M160.41,77.38l18.17,9.08l13.66-6.83l-24.96-12.48c-1.48,3.45-3.55,6.14-5.12,7.86
				C161.5,75.74,160.92,76.53,160.41,77.38z"/>
		</g>
		<g>
			<path class="st3" d="M123.69,67.15L98.72,79.63l13.66,6.83l18.17-9.09c-0.51-0.85-1.1-1.64-1.75-2.37
				C127.24,73.28,125.17,70.6,123.69,67.15z"/>
		</g>
		<g>
			<path class="st3" d="M181.11,87.87c-1.39,0.7-3.68,1.84-5.07,2.54l-18.7,9.35c-1.39,0.7-2.64,1.32-2.78,1.39
				c-0.13,0.07-1.38,0.69-2.78,1.39l-3.77,1.89c-1.39,0.7-3.68,0.7-5.07,0l-3.77-1.89c-1.39-0.7-2.7-1.35-2.91-1.45
				c-0.2-0.1-1.51-0.76-2.91-1.45l-18.45-9.22c-1.39-0.7-3.68-1.84-5.07-2.54L97.9,81.9c-1.39-0.7-2.54,0.01-2.54,1.57V93.8
				c0,1.56,1.14,3.41,2.54,4.1l45.04,22.52c1.39,0.7,3.68,0.7,5.07,0l45.04-22.52c1.39-0.7,2.54-2.54,2.54-4.1V83.46
				c0-1.56-1.14-2.26-2.54-1.57L181.11,87.87z"/>
		</g>
	</g>
	<g>
		<g>
			<path class="st4" d="M132.89,85.16c-0.06-1.75-0.41-3.45-1.03-5.09l-16.13,8.07l18.66,9.33l0-10.86
				C133.58,86.61,132.92,85.97,132.89,85.16z"/>
		</g>
		<g>
			<path class="st4" d="M156.3,86.61V97.6l18.92-9.46l-16.13-8.06c-0.62,1.63-0.96,3.34-1.03,5.09c-0.03,0.81-0.69,1.45-1.5,1.45
				H156.3z"/>
		</g>
	</g>
	<g>
		<rect x="143.22" y="62.76" class="st2" width="4.52" height="13.06"/>
		<rect x="137.43" y="77.3" class="st2" width="15.91" height="3.03"/>
		<path class="st2" d="M139.69,57.18c-1.13,0-2.05,0.92-2.05,2.05s0.92,2.05,2.05,2.05h2.09v-2.05c0-1.13-0.92-2.05-2.05-2.05
			C139.71,57.18,139.7,57.18,139.69,57.18z"/>
		<path class="st2" d="M137.43,81.79v1.48c0,0.68,0.47,1.23,1.05,1.23l0,0h13.8c0.58,0,1.05-0.55,1.05-1.23l0,0v-1.48H137.43z"/>
		<path class="st2" d="M145.38,94.01c1.98,0,3.66-1.68,3.97-3.96h-7.95C141.72,92.33,143.4,94.01,145.38,94.01z"/>
		<path class="st2" d="M137.43,85.87v1.48c0,0.68,0.47,1.23,1.05,1.23l0,0h13.8c0.58,0,1.05-0.55,1.05-1.23l0,0v-1.48H137.43z"/>
		<path class="st2" d="M153.34,59.23c-0.07-1.14-1.05-2.01-2.19-1.94c-1.04,0.06-1.88,0.89-1.94,1.94v2.05h2.07
			C152.42,61.28,153.34,60.36,153.34,59.23L153.34,59.23z"/>
		<path class="st2" d="M145.48,34.48c-10.1,0-18.62,8.67-18.62,18.93c0,6.06,3.47,10.78,5.55,13.06c2.31,2.58,3.64,5.89,3.76,9.34
			h5.61V62.76h-2.07c-1.95-0.01-3.52-1.6-3.51-3.55c0.01-1.95,1.6-3.52,3.55-3.51c1.94,0.01,3.51,1.59,3.51,3.53v2.05h4.52v-2.05
			c-0.01-1.96,1.57-3.55,3.53-3.56c1.96-0.01,3.55,1.57,3.56,3.53c0.01,1.96-1.57,3.55-3.53,3.56c0,0,0,0-0.01,0h-2.07v13.06h5.58
			c0.12-3.46,1.45-6.76,3.76-9.34c2.07-2.28,5.55-7,5.55-13.06C164.1,43.15,155.57,34.48,145.48,34.48z"/>
		<path class="st2" d="M145.48,28.49c-0.41,0-0.74-0.33-0.74-0.74v-6.66c0-0.41,0.33-0.74,0.74-0.74c0.41,0,0.74,0.33,0.74,0.74
			v6.66C146.22,28.16,145.88,28.49,145.48,28.49z"/>
		<path class="st2" d="M162.5,35.58c-0.2,0-0.38-0.08-0.52-0.22c-0.29-0.29-0.29-0.76,0-1.04l5.18-5.18c0.29-0.29,0.76-0.29,1.05,0
			c0.29,0.29,0.29,0.76,0,1.05l0,0l-5.18,5.18C162.9,35.51,162.7,35.58,162.5,35.58z"/>
		<path class="st2" d="M128.45,35.58c-0.2,0-0.39-0.08-0.53-0.22l-5.18-5.18c-0.29-0.29-0.29-0.76,0-1.05
			c0.29-0.29,0.76-0.29,1.05,0l5.18,5.18c0.29,0.29,0.29,0.76,0,1.04C128.84,35.49,128.65,35.58,128.45,35.58z"/>
		<path class="st2" d="M176.37,52.55h-6.41c-0.41,0-0.74-0.33-0.74-0.74s0.33-0.74,0.74-0.74h6.41c0.41,0,0.74,0.33,0.74,0.74
			S176.78,52.55,176.37,52.55z"/>
		<path class="st2" d="M120.99,52.55h-6.41c-0.41,0-0.74-0.33-0.74-0.74s0.33-0.74,0.74-0.74h6.41c0.41,0,0.74,0.33,0.74,0.74
			S121.4,52.55,120.99,52.55z"/>
	</g>
	
		<rect x="136.4" y="33.92" transform="matrix(2.003264e-03 -1 1 2.003264e-03 6.9574 283.4257)" class="st5" width="18.14" height="208.61"/>
	<text transform="matrix(1 0 0 1 41.8374 145.547)" class="st6 st7 st8">LunchBox Solutions</text>
	
		<rect x="136.4" y="56.34" transform="matrix(2.003264e-03 -1 1 2.003264e-03 -15.4652 305.8034)" class="st5" width="18.14" height="208.61"/>
	<text transform="matrix(1 0 0 1 79.7007 159.6698)" class="st9 st7 st10">“Feed your Innovation.”</text>
</g>
</svg>
