<?xml version="1.0" encoding="utf-8"?>
<!-- Generator: Adobe Illustrator 24.2.1, SVG Export Plug-In . SVG Version: 6.00 Build 0)  -->
<svg version="1.1" id="Layer_1" xmlns="http://www.w3.org/2000/svg" xmlns:xlink="http://www.w3.org/1999/xlink" x="0px" y="0px"
	 viewBox="0 0 278.24 194.22" style="enable-background:new 0 0 278.24 194.22;" xml:space="preserve">
<style type="text/css">
	.st0{fill:#059DD9;}
	.st1{fill:#14A64A;}
	.st2{fill:#F3C84C;}
	.st3{fill:none;}
	.st4{fill:#F04F29;}
	.st5{font-family:'Futura-Bold';}
	.st6{font-size:20px;}
	.st7{fill:#F1B8B3;}
	.st8{font-size:10px;}
	.st9{fill:#D1D3D4;}
	.st10{fill:#F1F2F2;}
	.st11{fill:#594A42;}
	.st12{fill:#C2B59B;}
</style>
<g>
	<g>
		<g>
			<path class="st0" d="M157.36,77.38l18.17,9.08l13.66-6.83l-24.96-12.48c-1.48,3.45-3.55,6.14-5.12,7.86
				C158.45,75.74,157.87,76.53,157.36,77.38z"/>
		</g>
		<g>
			<path class="st0" d="M120.64,67.15L95.67,79.63l13.66,6.83l18.17-9.09c-0.51-0.85-1.1-1.64-1.75-2.37
				C124.19,73.28,122.12,70.6,120.64,67.15z"/>
		</g>
		<g>
			<path class="st0" d="M178.06,87.87c-1.39,0.7-3.68,1.84-5.07,2.54l-18.7,9.35c-1.39,0.7-2.64,1.32-2.78,1.39
				s-1.38,0.69-2.78,1.39l-3.77,1.89c-1.39,0.7-3.68,0.7-5.07,0l-3.77-1.89c-1.39-0.7-2.7-1.35-2.91-1.45s-1.51-0.76-2.91-1.45
				l-18.45-9.22c-1.39-0.7-3.68-1.84-5.07-2.54L94.85,81.9c-1.39-0.7-2.54,0.01-2.54,1.57V93.8c0,1.56,1.14,3.41,2.54,4.1
				l45.04,22.52c1.39,0.7,3.68,0.7,5.07,0L190,97.91c1.39-0.7,2.54-2.54,2.54-4.1V83.46c0-1.56-1.14-2.26-2.54-1.57L178.06,87.87z"
				/>
		</g>
	</g>
	<g>
		<g>
			<path class="st1" d="M129.84,85.16c-0.06-1.75-0.41-3.45-1.03-5.09l-16.13,8.07l18.66,9.33l0-10.86
				C130.53,86.61,129.87,85.97,129.84,85.16z"/>
		</g>
		<g>
			<path class="st1" d="M153.25,86.61V97.6l18.92-9.46l-16.13-8.06c-0.62,1.63-0.96,3.34-1.03,5.09c-0.03,0.81-0.69,1.45-1.5,1.45
				H153.25z"/>
		</g>
	</g>
	<g>
		<rect x="140.17" y="62.76" class="st2" width="4.52" height="13.06"/>
		<rect x="134.38" y="77.3" class="st2" width="15.91" height="3.03"/>
		<path class="st2" d="M136.64,57.18c-1.13,0-2.05,0.92-2.05,2.05s0.92,2.05,2.05,2.05h2.09v-2.05c0-1.13-0.92-2.05-2.05-2.05
			C136.66,57.18,136.65,57.18,136.64,57.18z"/>
		<path class="st2" d="M134.38,81.79v1.48c0,0.68,0.47,1.23,1.05,1.23l0,0h13.8c0.58,0,1.05-0.55,1.05-1.23l0,0v-1.48H134.38z"/>
		<path class="st2" d="M142.33,94.01c1.98,0,3.66-1.68,3.97-3.96h-7.95C138.67,92.33,140.35,94.01,142.33,94.01z"/>
		<path class="st2" d="M134.38,85.87v1.48c0,0.68,0.47,1.23,1.05,1.23l0,0h13.8c0.58,0,1.05-0.55,1.05-1.23l0,0v-1.48H134.38z"/>
		<path class="st2" d="M150.29,59.23c-0.07-1.14-1.05-2.01-2.19-1.94c-1.04,0.06-1.88,0.89-1.94,1.94v2.05h2.07
			C149.37,61.28,150.29,60.36,150.29,59.23L150.29,59.23z"/>
		<path class="st2" d="M142.43,34.48c-10.1,0-18.62,8.67-18.62,18.93c0,6.06,3.47,10.78,5.55,13.06c2.31,2.58,3.64,5.89,3.76,9.34
			h5.61V62.76h-2.07c-1.95-0.01-3.52-1.6-3.51-3.55c0.01-1.95,1.6-3.52,3.55-3.51c1.94,0.01,3.51,1.59,3.51,3.53v2.05h4.52v-2.05
			c-0.01-1.96,1.57-3.55,3.53-3.56s3.55,1.57,3.56,3.53c0.01,1.96-1.57,3.55-3.53,3.56c0,0,0,0-0.01,0h-2.07v13.06h5.58
			c0.12-3.46,1.45-6.76,3.76-9.34c2.07-2.28,5.55-7,5.55-13.06C161.05,43.15,152.52,34.48,142.43,34.48z"/>
		<path class="st2" d="M142.43,28.49c-0.41,0-0.74-0.33-0.74-0.74v-6.66c0-0.41,0.33-0.74,0.74-0.74s0.74,0.33,0.74,0.74v6.66
			C143.17,28.16,142.84,28.49,142.43,28.49z"/>
		<path class="st2" d="M159.46,35.58c-0.2,0-0.38-0.08-0.52-0.22c-0.29-0.29-0.29-0.76,0-1.04l5.18-5.18c0.29-0.29,0.76-0.29,1.05,0
			c0.29,0.29,0.29,0.76,0,1.05l0,0l-5.18,5.18C159.85,35.51,159.66,35.58,159.46,35.58z"/>
		<path class="st2" d="M125.4,35.58c-0.2,0-0.39-0.08-0.53-0.22l-5.18-5.18c-0.29-0.29-0.29-0.76,0-1.05c0.29-0.29,0.76-0.29,1.05,0
			l5.18,5.18c0.29,0.29,0.29,0.76,0,1.04C125.79,35.49,125.6,35.58,125.4,35.58z"/>
		<path class="st2" d="M173.32,52.55h-6.41c-0.41,0-0.74-0.33-0.74-0.74s0.33-0.74,0.74-0.74h6.41c0.41,0,0.74,0.33,0.74,0.74
			S173.73,52.55,173.32,52.55z"/>
		<path class="st2" d="M117.94,52.55h-6.41c-0.41,0-0.74-0.33-0.74-0.74s0.33-0.74,0.74-0.74h6.41c0.41,0,0.74,0.33,0.74,0.74
			S118.35,52.55,117.94,52.55z"/>
	</g>
	
		<rect x="133.36" y="33.92" transform="matrix(2.003264e-03 -1 1 2.003264e-03 3.9151 280.3772)" class="st3" width="18.14" height="208.61"/>
	<text transform="matrix(1 0 0 1 38.7889 145.547)" class="st4 st5 st6">LunchBox Solutions</text>
	
		<rect x="133.36" y="56.34" transform="matrix(2.003264e-03 -1 1 2.003264e-03 -18.5075 302.7549)" class="st3" width="18.14" height="208.61"/>
	<text transform="matrix(1 0 0 1 76.6522 159.6698)" class="st7 st5 st8">“Feed your Innovation.”</text>
</g>
</svg>
