<?xml version="1.0" encoding="utf-8"?>
<!-- Generator: Adobe Illustrator 24.2.1, SVG Export Plug-In . SVG Version: 6.00 Build 0)  -->
<svg version="1.1" id="Layer_1" xmlns="http://www.w3.org/2000/svg" xmlns:xlink="http://www.w3.org/1999/xlink" x="0px" y="0px"
	 viewBox="0 0 278.24 194.22" style="enable-background:new 0 0 278.24 194.22;" xml:space="preserve">
<style type="text/css">
	.st0{fill:#059DD9;}
	.st1{fill:#14A64A;}
	.st2{fill:#F3C84C;}
	.st3{fill:#D1D3D4;}
	.st4{fill:#F1F2F2;}
	.st5{fill:#594A42;}
	.st6{fill:#C2B59B;}
	.st7{fill:none;}
	.st8{fill:#5569B1;}
	.st9{font-family:'Futura-Bold';}
	.st10{font-size:20px;}
	.st11{fill:#9B8579;}
	.st12{font-size:10px;}
</style>
<g>
	<g>
		<g>
			<path class="st5" d="M154.05,77.38l18.17,9.08l13.66-6.83l-24.96-12.48c-1.48,3.45-3.55,6.14-5.12,7.86
				C155.15,75.74,154.57,76.53,154.05,77.38z"/>
		</g>
		<g>
			<path class="st5" d="M117.33,67.15L92.37,79.63l13.66,6.83l18.17-9.09c-0.51-0.85-1.1-1.64-1.75-2.37
				C120.88,73.28,118.81,70.6,117.33,67.15z"/>
		</g>
		<g>
			<path class="st5" d="M174.76,87.87c-1.39,0.7-3.68,1.84-5.07,2.54l-18.7,9.35c-1.39,0.7-2.64,1.32-2.78,1.39
				s-1.38,0.69-2.78,1.39l-3.77,1.89c-1.39,0.7-3.68,0.7-5.07,0l-3.77-1.89c-1.39-0.7-2.7-1.35-2.91-1.45s-1.51-0.76-2.91-1.45
				l-18.45-9.22c-1.39-0.7-3.68-1.84-5.07-2.54L91.55,81.9c-1.39-0.7-2.54,0.01-2.54,1.57V93.8c0,1.56,1.14,3.41,2.54,4.1
				l45.04,22.52c1.39,0.7,3.68,0.7,5.07,0l45.04-22.52c1.39-0.7,2.54-2.54,2.54-4.1V83.46c0-1.56-1.14-2.26-2.54-1.57L174.76,87.87z
				"/>
		</g>
	</g>
	<g>
		<g>
			<path class="st6" d="M126.54,85.16c-0.06-1.75-0.41-3.45-1.03-5.09l-16.13,8.07l18.66,9.33l0-10.86
				C127.23,86.61,126.56,85.97,126.54,85.16z"/>
		</g>
		<g>
			<path class="st6" d="M149.95,86.61V97.6l18.92-9.46l-16.13-8.06c-0.62,1.63-0.96,3.34-1.03,5.09c-0.03,0.81-0.69,1.45-1.5,1.45
				H149.95z"/>
		</g>
	</g>
	<g>
		<rect x="136.86" y="62.76" class="st2" width="4.52" height="13.06"/>
		<rect x="131.07" y="77.3" class="st2" width="15.91" height="3.03"/>
		<path class="st2" d="M133.33,57.18c-1.13,0-2.05,0.92-2.05,2.05s0.92,2.05,2.05,2.05h2.09v-2.05c0-1.13-0.92-2.05-2.05-2.05
			C133.36,57.18,133.34,57.18,133.33,57.18z"/>
		<path class="st2" d="M131.07,81.79v1.48c0,0.68,0.47,1.23,1.05,1.23l0,0h13.8c0.58,0,1.05-0.55,1.05-1.23l0,0v-1.48H131.07z"/>
		<path class="st2" d="M139.03,94.01c1.98,0,3.66-1.68,3.97-3.96h-7.95C135.36,92.33,137.05,94.01,139.03,94.01z"/>
		<path class="st2" d="M131.07,85.87v1.48c0,0.68,0.47,1.23,1.05,1.23l0,0h13.8c0.58,0,1.05-0.55,1.05-1.23l0,0v-1.48H131.07z"/>
		<path class="st2" d="M146.98,59.23c-0.07-1.14-1.05-2.01-2.19-1.94c-1.04,0.06-1.88,0.89-1.94,1.94v2.05h2.07
			C146.07,61.28,146.98,60.36,146.98,59.23L146.98,59.23z"/>
		<path class="st2" d="M139.12,34.48c-10.1,0-18.62,8.67-18.62,18.93c0,6.06,3.47,10.78,5.55,13.06c2.31,2.58,3.64,5.89,3.76,9.34
			h5.61V62.76h-2.07c-1.95-0.01-3.52-1.6-3.51-3.55c0.01-1.95,1.6-3.52,3.55-3.51c1.94,0.01,3.51,1.59,3.51,3.53v2.05h4.52v-2.05
			c-0.01-1.96,1.57-3.55,3.53-3.56c1.96-0.01,3.55,1.57,3.56,3.53c0.01,1.96-1.57,3.55-3.53,3.56c0,0,0,0-0.01,0h-2.07v13.06h5.58
			c0.12-3.46,1.45-6.76,3.76-9.34c2.07-2.28,5.55-7,5.55-13.06C157.74,43.15,149.21,34.48,139.12,34.48z"/>
		<path class="st2" d="M139.12,28.49c-0.41,0-0.74-0.33-0.74-0.74v-6.66c0-0.41,0.33-0.74,0.74-0.74c0.41,0,0.74,0.33,0.74,0.74
			v6.66C139.86,28.16,139.53,28.49,139.12,28.49z"/>
		<path class="st2" d="M156.15,35.58c-0.2,0-0.38-0.08-0.52-0.22c-0.29-0.29-0.29-0.76,0-1.04l5.18-5.18c0.29-0.29,0.76-0.29,1.05,0
			c0.29,0.29,0.29,0.76,0,1.05l0,0l-5.18,5.18C156.54,35.51,156.35,35.58,156.15,35.58z"/>
		<path class="st2" d="M122.09,35.58c-0.2,0-0.39-0.08-0.53-0.22l-5.18-5.18c-0.29-0.29-0.29-0.76,0-1.05
			c0.29-0.29,0.76-0.29,1.05,0l5.18,5.18c0.29,0.29,0.29,0.76,0,1.04C122.48,35.49,122.29,35.58,122.09,35.58z"/>
		<path class="st2" d="M170.02,52.55h-6.41c-0.41,0-0.74-0.33-0.74-0.74s0.33-0.74,0.74-0.74h6.41c0.41,0,0.74,0.33,0.74,0.74
			S170.43,52.55,170.02,52.55z"/>
		<path class="st2" d="M114.64,52.55h-6.41c-0.41,0-0.74-0.33-0.74-0.74s0.33-0.74,0.74-0.74h6.41c0.41,0,0.74,0.33,0.74,0.74
			S115.05,52.55,114.64,52.55z"/>
	</g>
	
		<rect x="130.05" y="33.92" transform="matrix(2.003264e-03 -1 1 2.003264e-03 0.6162 277.0717)" class="st7" width="18.14" height="208.61"/>
	<text transform="matrix(1 0 0 1 35.4834 145.547)" class="st8 st9 st10">LunchBox Solutions</text>
	
		<rect x="130.05" y="56.34" transform="matrix(2.003264e-03 -1 1 2.003264e-03 -21.8064 299.4495)" class="st7" width="18.14" height="208.61"/>
	<text transform="matrix(1 0 0 1 73.3467 159.6698)" class="st11 st9 st12">“Feed your Innovation.”</text>
</g>
</svg>
